<svg width="40" height="41" viewBox="0 0 40 41" fill="none" xmlns="http://www.w3.org/2000/svg">
<path d="M40 20.6846C40 31.7303 31.0457 40.6846 20 40.6846C8.95431 40.6846 0 31.7303 0 20.6846C0 9.63888 8.95431 0.68457 20 0.68457C31.0457 0.68457 40 9.63888 40 20.6846Z" fill="#1E1E1E"/>
<path d="M11.3 36.2846V28.1471L14.2625 27.6783V14.6846C13.275 14.6846 12.4625 14.9471 11.825 15.4721C11.1875 15.9846 10.65 16.5221 10.2125 17.0846H7.0625V7.48457H33.4625V17.0846H30.3125C29.8875 16.5221 29.35 15.9846 28.7 15.4721C28.0625 14.9471 27.25 14.6846 26.2625 14.6846V27.6783L29.225 28.1471V36.2846H11.3Z" fill="white"/>
</svg>
