<svg width="25" height="25" viewBox="0 0 25 25" fill="none" xmlns="http://www.w3.org/2000/svg">
<g clip-path="url(#clip0_395_1023)">
<path d="M22.4334 18.6396H20.4719C20.338 18.6396 20.2124 18.6982 20.1287 18.8015C19.9334 19.0386 19.7241 19.2674 19.5037 19.485C18.6022 20.3875 17.5343 21.1066 16.3592 21.6028C15.1417 22.117 13.8331 22.3808 12.5115 22.3785C11.175 22.3785 9.88036 22.1162 8.66385 21.6028C7.4887 21.1066 6.42084 20.3875 5.51931 19.485C4.61618 18.5857 3.89604 17.5197 3.39878 16.3461C2.8826 15.1296 2.62311 13.8377 2.62311 12.5012C2.62311 11.1647 2.88539 9.87288 3.39878 8.65636C3.89543 7.4817 4.60972 6.42422 5.51931 5.51741C6.42891 4.6106 7.48639 3.89632 8.66385 3.39967C9.88036 2.88627 11.175 2.624 12.5115 2.624C13.848 2.624 15.1426 2.88348 16.3592 3.39967C17.5366 3.89632 18.5941 4.6106 19.5037 5.51741C19.7241 5.73784 19.9306 5.96663 20.1287 6.20101C20.2124 6.30424 20.3407 6.36284 20.4719 6.36284H22.4334C22.6092 6.36284 22.718 6.16752 22.6203 6.01964C20.4803 2.69375 16.7358 0.492299 12.4808 0.50346C5.79554 0.520201 0.43561 5.9471 0.502574 12.624C0.569538 19.1949 5.9211 24.499 12.5115 24.499C16.7554 24.499 20.483 22.3003 22.6203 18.9828C22.7152 18.8349 22.6092 18.6396 22.4334 18.6396ZM24.9138 12.3254L20.9546 9.20045C20.8067 9.08326 20.5919 9.18929 20.5919 9.37623V11.4968H11.8307C11.7079 11.4968 11.6075 11.5972 11.6075 11.72V13.2825C11.6075 13.4052 11.7079 13.5057 11.8307 13.5057H20.5919V15.6262C20.5919 15.8132 20.8095 15.9192 20.9546 15.802L24.9138 12.677C24.9405 12.6561 24.9621 12.6295 24.9769 12.599C24.9918 12.5685 24.9995 12.5351 24.9995 12.5012C24.9995 12.4674 24.9918 12.4339 24.9769 12.4035C24.9621 12.373 24.9405 12.3463 24.9138 12.3254V12.3254Z" fill="#FFF2F2"/>
</g>
<defs>
<clipPath id="clip0_395_1023">
<rect width="25" height="25" fill="white"/>
</clipPath>
</defs>
</svg>
